<svg fill="none" height="32" viewBox="0 0 32 32" width="32" xmlns="http://www.w3.org/2000/svg"><path d="m2 11.9556c0-3.48482 0-5.2272.67818-6.55821.59655-1.17078 1.54843-2.12266 2.71921-2.71921 1.33101-.67818 3.07339-.67818 6.55821-.67818h8.0888c3.4848 0 5.2272 0 6.5582.67818 1.1708.59655 2.1227 1.54843 2.7192 2.71921.6782 1.33101.6782 3.07339.6782 6.55821v8.0888c0 3.4848 0 5.2272-.6782 6.5582-.5965 1.1708-1.5484 2.1227-2.7192 2.7192-1.331.6782-3.0734.6782-6.5582.6782h-8.0888c-3.48482 0-5.2272 0-6.55821-.6782-1.17078-.5965-2.12266-1.5484-2.71921-2.7192-.67818-1.331-.67818-3.0734-.67818-6.5582z" fill="#fff"/><path d="m22.0515 8.52295-5.9871 4.67245-6.12397-4.67245v.00126l.0074.00632v6.54267l6.04757 4.7734 6.0561-4.5891z" fill="#ea4335"/><path d="m23.6231 7.38639-1.5723 1.13653v6.73458l4.9475-3.7985v-2.28826s-.6005-3.26816-3.3752-1.78435z" fill="#fbbc05"/><path d="m22.0508 15.2575v8.7349h3.792s1.0791-.1111 1.1567-1.3411v-11.1923z" fill="#34a853"/><g fill="#c5221f"><path d="m9.94811 24.0001v-8.9269l-.00768-.0063z"/><path d="m9.94014 8.52404-1.56368-1.13022c-2.77467-1.48381-3.37646 1.7831-3.37646 1.7831v2.28818l4.94014 3.6016z"/><path d="m9.94043 8.52441v6.54269l.00768.0063v-6.54267z"/></g><path d="m5 11.4668v11.1923c.07646 1.2313 1.15673 1.3412 1.15673 1.3412h3.79204l-.00863-8.9332z" fill="#4285f4"/></svg>